<?xml version="1.0" encoding="utf-8"?>
<!-- Generator: Adobe Illustrator 23.0.4, SVG Export Plug-In . SVG Version: 6.00 Build 0)  -->
<svg version="1.1" id="Camada_1" xmlns="http://www.w3.org/2000/svg" xmlns:xlink="http://www.w3.org/1999/xlink" x="0px" y="0px"
	 viewBox="0 0 100 91.9" xml:space="preserve">
<path d="M93.6,21.2H6.4c-0.8,0-1.4,0.6-1.4,1.4v9.4c0,0.8,0.6,1.4,1.4,1.4h9.6L8.2,77.2c-0.1,0.4,0,0.8,0.3,1.1
	c0.3,0.3,0.6,0.5,1,0.5h4c0.6,0,1.1-0.4,1.3-1l10.4-35.6h47.1l10.4,35.6c0.2,0.6,0.7,1,1.3,1h4c0.4,0,0.8-0.2,1-0.5
	c0.3-0.3,0.4-0.7,0.3-1.1l-7.7-43.9h11.9c0.8,0,1.4-0.6,1.4-1.4v-9.4C95,21.8,94.4,21.2,93.6,21.2z M12.5,76.1h-1.4l7.5-42.8h6.4
	L12.5,76.1z M26.1,39.5l1.8-6.2h41.8l1.8,6.2H26.1z M86.5,76.1h-1.4L72.6,33.3h6.4L86.5,76.1z M92.3,30.5H80.1h-9.3H26.9h-9.3H7.7
	v-6.6h84.5L92.3,30.5L92.3,30.5z"/>
</svg>